<svg width="25" height="25" viewBox="0 0 25 25" fill="none" xmlns="http://www.w3.org/2000/svg">
<path d="M9.40625 2.1875C9.31508 2.1875 9.22765 2.22372 9.16318 2.28818C9.09872 2.35265 9.0625 2.44008 9.0625 2.53125V8.03125C9.0625 8.30475 8.95385 8.56706 8.76045 8.76045C8.56706 8.95385 8.30475 9.0625 8.03125 9.0625H2.53125C2.44008 9.0625 2.35265 9.09872 2.28818 9.16318C2.22372 9.22765 2.1875 9.31508 2.1875 9.40625V15.5938C2.1875 15.7835 2.3415 15.9375 2.53125 15.9375H8.03125C8.30475 15.9375 8.56706 16.0461 8.76045 16.2395C8.95385 16.4329 9.0625 16.6952 9.0625 16.9688V22.4688C9.0625 22.6585 9.2165 22.8125 9.40625 22.8125H15.5938C15.6849 22.8125 15.7724 22.7763 15.8368 22.7118C15.9013 22.6474 15.9375 22.5599 15.9375 22.4688V16.9688C15.9375 16.6952 16.0461 16.4329 16.2395 16.2395C16.4329 16.0461 16.6952 15.9375 16.9688 15.9375H22.4688C22.5599 15.9375 22.6474 15.9013 22.7118 15.8368C22.7763 15.7724 22.8125 15.6849 22.8125 15.5938V9.40625C22.8125 9.31508 22.7763 9.22765 22.7118 9.16318C22.6474 9.09872 22.5599 9.0625 22.4688 9.0625H16.9688C16.6952 9.0625 16.4329 8.95385 16.2395 8.76045C16.0461 8.56706 15.9375 8.30475 15.9375 8.03125V2.53125C15.9375 2.44008 15.9013 2.35265 15.8368 2.28818C15.7724 2.22372 15.6849 2.1875 15.5938 2.1875H9.40625ZM7 2.53125C7 1.203 8.078 0.125 9.40625 0.125H15.5938C16.922 0.125 18 1.203 18 2.53125V7H22.4688C23.797 7 24.875 8.078 24.875 9.40625V15.5938C24.875 16.2319 24.6215 16.844 24.1702 17.2952C23.719 17.7465 23.1069 18 22.4688 18H18V22.4688C18 23.1069 17.7465 23.719 17.2952 24.1702C16.844 24.6215 16.2319 24.875 15.5938 24.875H9.40625C8.76807 24.875 8.15603 24.6215 7.70477 24.1702C7.25351 23.719 7 23.1069 7 22.4688V18H2.53125C1.89307 18 1.28103 17.7465 0.829774 17.2952C0.378515 16.844 0.125 16.2319 0.125 15.5938V9.40625C0.125 8.078 1.203 7 2.53125 7H7V2.53125Z" fill="#049BAC"/>
</svg>
